<?xml version="1.0" encoding="utf-8"?>
<!-- Generator: Adobe Illustrator 16.0.0, SVG Export Plug-In . SVG Version: 6.00 Build 0)  -->
<!DOCTYPE svg PUBLIC "-//W3C//DTD SVG 1.1//EN" "http://www.w3.org/Graphics/SVG/1.1/DTD/svg11.dtd">
<svg version="1.1" id="Ebene_1" xmlns="http://www.w3.org/2000/svg" xmlns:xlink="http://www.w3.org/1999/xlink" x="0px" y="0px"
	 width="595.279px" height="216px" viewBox="0 0 595.279 216" enable-background="new 0 0 595.279 216" xml:space="preserve">
<g>
	<path fill="#FFFFFF" d="M487.444,6.475c3.429,0.327,6.856,0.664,10.288,0.975c13.382,1.215,26.631,3.06,39.19,8.214
		c4.431,1.817,8.089,4.772,11.961,7.515c4.821,3.414,8.908,7.396,12.398,12.021c8.396,11.125,15.795,22.867,21.246,35.749
		c0.561,1.323,0.777,2.792,1.152,4.192c-0.242,0.148-0.482,0.297-0.726,0.446c-1.183-1.004-2.391-1.98-3.543-3.018
		c-13.085-11.79-26.132-23.621-39.271-35.349c-2.204-1.968-4.633-3.826-7.248-5.17c-7.826-4.022-16.214-6.33-24.974-7.172
		c-12.973-1.247-25.808-0.407-38.578,2.289c-10.271,2.168-20.683,3.683-30.935,5.938c-5.45,1.2-10.733,3.233-16.021,5.101
		c-15.472,5.467-30.054,12.809-44.533,20.519c-9.661,5.145-19.044,10.66-28.321,16.418c-1.83,1.136-3.86,1.947-5.809,2.889
		c-3.819,1.847-7.553,3.91-11.487,5.463c-5.572,2.199-11.291,4.026-16.95,5.999c-3.331,1.16-6.694,2.218-9.989,3.464
		c-2.216,0.837-3.117,2.307-3.628,4.953c-1.041,5.379-3.01,10.606-4.902,15.784c-1.851,5.062-4.921,9.341-9.314,12.625
		c-11.151,8.334-25.98,6.393-34.535-4.612c-1.725-2.22-3.251-4.601-5.046-6.758c-0.51-0.611-1.788-1.156-2.479-0.95
		c-12.741,3.827-25.432,7.812-38.165,11.656c-2.855,0.861-3.853,2.436-4.189,5.457c-0.855,7.718-1.794,15.486-3.589,23.023
		c-2.146,9.014-8.277,15.693-15.194,21.492c-1.883,1.577-4.536,2.441-6.979,3.107c-19.566,5.347-39.168,10.565-58.76,15.822
		c-0.986,0.265-1.977,0.51-2.966,0.765c-1.61,0-3.219,0-4.83,0c-0.782-1.716-1.639-3.403-2.323-5.157
		c-0.47-1.202-0.903-2.432-2.463-2c-2.164,0.598-3.375-0.521-4.361-2.111c-2.033-3.274-4.089-6.541-5.976-9.9
		c-0.815-1.45-1.582-1.785-3.235-1.323c-8.338,2.337-16.719,4.521-25.089,6.741c-10.146,2.688-20.197,6.015-30.979,3.681
		c-1.749-0.378-2.826-0.967-3.215-2.647c-0.599-2.578-1.26-5.147-1.646-7.756c-0.126-0.85,0.278-2.029,0.858-2.688
		c4.042-4.601,9.21-7.504,15.024-9.158c11.104-3.161,22.254-6.147,33.385-9.213c1.19-0.328,2.37-0.704,3.443-1.026
		c-2.171-5.469-4.233-10.681-6.312-15.89c-0.639-1.601-0.484-2.86,1.014-4.022c0.6-0.469,1.081-1.756,0.877-2.457
		c-0.482-1.662-1.352-3.226-2.167-4.773c-0.798-1.518-2.136-2.869-2.52-4.465c-1.595-6.616-2.895-13.302-4.368-19.95
		c-0.169-0.763-0.75-1.434-1.141-2.146c-0.442,0.705-0.874,1.418-1.331,2.114c-0.408,0.623-0.729,1.495-1.31,1.75
		c-0.434,0.19-1.22-0.436-1.854-0.686c-0.814-0.323-1.63-0.879-2.449-0.891c-1.183-0.018-2.385,0.299-3.551,0.588
		c-9.65,2.387-19.297,4.792-28.939,7.209c-4.724,1.185-9.388,0.939-14.018-0.478c-1.949-0.596-3.411-1.639-4.024-3.743
		c-0.842-2.893-1.832-5.743-2.758-8.611c0-0.645,0-1.288,0-1.932c1.941-1.1,3.854-2.251,5.829-3.289
		c10.992-5.783,22.968-8.477,34.948-11.21c5.147-1.173,10.205-2.745,15.283-4.209c1.863-0.538,2.551-1.803,2.389-3.852
		c-0.203-2.553-0.312-5.205,0.169-7.691c0.389-2.01,1.297-4.267,2.72-5.646c2.128-2.065,2.862-4.115,2.137-6.875
		c-0.577-2.198,0.229-3.824,2.302-4.7c3.762-1.588,7.443-3.501,11.354-4.571c16.317-4.467,32.67-8.825,49.089-12.903
		c7.25-1.802,14.549-5.16,22.211-1.411c0.07,0.034,0.163,0.015,0.237,0.045c2.312,0.981,4.835,1.654,6.875,3.036
		c2.165,1.464,4.05,3.453,5.748,5.471c7.406,8.794,13.834,18.287,20.232,28.685c10.753-2.881,21.821-6.125,33.04-8.735
		c5.488-1.277,7.786-3.992,9.356-9.481c4.564-15.95,13.263-22.949,29.972-22.537c0.948,0.023,2.072,0.036,2.81,0.52
		c3.82,2.511,7.9,4.793,11.204,7.888c3.473,3.255,6.133,7.368,9.23,11.037c0.585,0.693,1.577,1.542,2.335,1.5
		c2.96-0.166,5.931-0.504,8.844-1.062c7.953-1.525,15.886-3.165,23.812-4.822c2.29-0.479,4.141-0.244,5.894,1.604
		c0.867,0.914,2.54,1.571,3.8,1.501c2.78-0.153,5.629-0.53,8.276-1.364c19.045-5.993,38.048-12.11,57.057-18.214
		c7.022-2.255,13.878-5.347,21.065-6.714c15.523-2.955,31.22-5.02,46.837-7.5c4.491-0.712,8.957-1.596,13.433-2.402
		C481.006,6.475,484.225,6.475,487.444,6.475z M154.983,30.336c-1.625,5.424-6.072,6.466-10.487,7.608
		c-5.977,1.544-11.926,3.193-17.903,4.728c-9.767,2.507-19.548,4.958-29.583,7.498c8.262,14.943,17.006,29.437,21.664,45.876
		c22.156-5.52,43.818-11.962,66.205-16.561c0.928,4.895,1.872,9.356,2.597,13.852c0.938,5.821,1.531,5.132-4.332,6.797
		c-18.895,5.364-37.83,10.586-56.781,15.749c-1.969,0.538-2.268,1.311-2.017,3.165c1.33,9.784,2.566,19.584,3.731,29.392
		c0.545,4.591,0.854,9.213,1.288,14.022c8.475-2.271,16.744-4.497,25.018-6.707c13.477-3.603,26.965-7.169,40.423-10.844
		c0.882-0.242,2.029-1.151,2.226-1.953c0.595-2.403,0.932-4.897,1.093-7.374c0.763-11.691-0.146-23.202-2.774-34.687
		c-4.374-19.096-10.838-37.272-21.685-53.697c-2.245-3.398-3.968-7.52-8.738-8.388c-0.331-0.06-0.723-0.435-0.872-0.761
		C162.302,34.25,158.6,32.764,154.983,30.336z M206.156,120.614c0.996-0.171,1.957-0.231,2.853-0.503
		c6.753-2.053,13.426-4.4,20.252-6.151c7.982-2.05,16.071-3.726,24.175-5.246c1.904-0.358,4.148,0.265,6.044,0.961
		c1.629,0.597,2.415,2.409,1.537,3.982c-0.313,0.563-2.214,0.462-3.339,0.301c-1.275-0.181-2.49-0.767-4.264-1.349
		c0.309,1.221,0.357,1.932,0.652,2.521c5.742,11.382,21.363,15.05,31.325,7.158c1.974-1.563,3.293-4.062,4.637-6.294
		c5.124-8.524,8.316-17.583,6.841-27.725c-1.731-11.888-5.395-23.26-9.562-34.478c-0.496-1.338-1.173-2.707-2.116-3.747
		c-0.672-0.742-1.927-0.958-2.92-1.408c-0.065,1.025-0.456,2.163-0.146,3.056c1.086,3.101,2.448,6.104,3.641,9.17
		c0.971,2.499,1.849,5.032,2.92,7.969c-2.53,0-4.565,0-6.849,0c0.466,1.325,0.835,2.289,1.14,3.274
		c0.738,2.37,1.515,4.731,2.108,7.138c0.131,0.534-0.272,1.566-0.711,1.773c-0.45,0.212-1.381-0.144-1.854-0.543
		c-0.65-0.551-1.229-1.31-1.56-2.096c-0.833-1.992-1.499-4.053-2.25-6.08c-0.701-1.888-0.853-4.249-3.742-4.26
		c-0.295-0.001-0.645-0.462-0.878-0.776c-1.648-2.206-3.386-4.354-4.882-6.661c-3.146-4.846-6.105-9.812-9.243-14.663
		c-2.703-4.18-6.764-6.444-11.461-7.746c-0.897-0.249-1.715-0.787-2.566-1.19c0.7-0.664,1.294-1.67,2.124-1.934
		c4.433-1.404,8.912-2.658,13.403-3.864c0.602-0.162,1.479,0.056,2.02,0.416c4.398,2.931,8.742,5.948,13.117,8.917
		c0.724,0.492,1.521,0.879,2.286,1.314c0.102-0.184,0.205-0.367,0.309-0.551c-5.275-4.954-10.812-9.512-18.144-11.225
		c-4.646-1.085-9.118-0.697-13.185,1.979c-7.406,4.874-8.997,12.974-11.751,20.79c1.041-0.229,1.666-0.336,2.271-0.504
		c2.143-0.596,4.379-1.072,3.551-4.25c-0.099-0.382,0.682-1.358,1.182-1.464c1.469-0.315,3.021-0.539,4.508-0.414
		c2.103,0.176,2.998,1.87,1.819,3.607c-0.961,1.419-2.232,2.956-3.731,3.622c-4.375,1.947-8.857,3.728-13.433,5.135
		c-11.034,3.392-22.146,6.527-33.219,9.79c-0.825,0.243-1.595,0.678-2.392,1.023c0.091,0.294,0.178,0.588,0.269,0.881
		c4.547-0.85,9.106-1.644,13.63-2.604c0.742-0.158,1.259-1.188,2.007-1.559c0.942-0.467,2.006-0.903,3.029-0.938
		c1.521-0.051,3.121,0.631,4.57,0.363c10.438-1.928,20.43-6.042,31.253-6.168c1.781-0.021,2.476,0.351,3.291,1.863
		c1.539,2.856,3.428,5.524,5.226,8.234c0.617,0.93,1.555,1.675,2.034,2.655c0.26,0.527,0.082,1.826-0.277,2.002
		c-1.882,0.924-1.597,2.395-1.272,3.923c0.244,1.164,0.551,2.315,0.757,3.166c-12.857,3.313-25.609,6.599-38.357,9.884
		c7.823-0.968,15.542-2.39,23.279-3.702c2.528-0.429,5.104-0.73,7.659-0.741c0.761-0.003,1.525,1.183,2.29,1.823
		c-0.648,0.538-1.221,1.348-1.961,1.555c-1.378,0.385-2.871,0.329-4.285,0.611c-13.45,2.693-26.893,5.424-40.341,8.126
		c-1.19,0.24-1.662,0.79-1.754,2.09c-0.195,2.718-0.585,5.432-1.054,8.117c-0.244,1.389-1.173,2.713-1.192,4.073
		C205.44,115.424,205.874,117.811,206.156,120.614z M99.246,173.064c1.271,2.205,2.344,4.148,3.497,6.047
		c1.381,2.271,3.332,3.502,6.089,3.759c1.009,0.093,2.102,1.181,2.805,2.087c0.6,0.773,0.705,1.936,1.015,2.932
		c0.92,2.969,1.392,3.274,4.024,2.608c2.572-0.651,3.055-1.45,2.539-4.198c-0.089-0.473-0.188-0.945-0.249-1.423
		c-0.586-4.526-0.608-4.576,3.484-6.612c1.51-0.75,2.519-1.738,2.549-3.449c0.054-3.129,0.249-6.276,0.002-9.387
		c-0.81-10.171-1.721-20.337-2.739-30.488c-0.449-4.467-1.146-8.918-1.936-13.34c-0.479-2.68-1.998-3.437-4.521-2.652
		c-0.763,0.238-1.538,0.479-2.248,0.84c-9.886,4.996-19.751,10.031-29.652,14.997c-1.359,0.683-1.437,1.608-0.981,2.763
		c1.439,3.652,2.875,7.309,4.412,10.921c0.93,2.183,2.653,2.792,4.95,2.224c3.502-0.866,7.024-1.659,10.558-2.397
		c3.231-0.676,4.912,0.267,5.817,3.452c1.16,4.084,2.224,8.204,3.145,12.35c0.885,3.978-0.014,5.355-3.985,6.562
		C105.087,171.489,102.321,172.208,99.246,173.064z M83.833,48.148c-4.14,0.502-6.16,2.545-6.041,5.874
		c0.105,2.964-0.446,5.353-3.332,6.853c-0.75,0.39-1.525,1.427-1.626,2.25c-0.456,3.684-0.673,7.397-0.997,11.354
		c4.938-1.037,9.298-1.953,13.75-2.889c2.18,7.223,4.882,14.026,4.936,21.598c-5.341,1.451-10.565,2.869-15.837,4.301
		c0.81,6.282,1.594,12.38,2.405,18.675c0.796-0.4,1.51-0.721,2.188-1.105c7.463-4.254,14.882-8.587,22.395-12.75
		c3.217-1.782,6.559-3.386,9.979-4.728c1.473-0.578,1.979-1.245,1.596-2.574c-0.756-2.61-1.486-5.244-2.501-7.758
		c-4.553-11.262-10.282-21.928-16.541-32.323c-1.143-1.895-2.104-2.851-4.761-1.888c-2.119,0.769-4.865,0.271-7.219-0.216
		c-1.916-0.396-1.977-1.917-0.396-3.117C82.33,49.324,82.824,48.933,83.833,48.148z M124.823,189.518
		c16.722-4.498,33.257-8.94,49.792-13.389c2.295-0.619,3.506-2.725,2.699-5.295c-0.685-2.18-2.551-1.139-3.858-0.827
		c-10.593,2.527-21.162,5.136-31.732,7.75c-6.192,1.533-12.372,3.125-18.757,4.739C123.619,184.964,124.206,187.186,124.823,189.518
		z M319.783,64.675c0.038,0.234,0.073,0.467,0.109,0.699c0.396-0.027,0.795-0.041,1.188-0.084c1.916-0.212,3.268,0.545,3.357,2.516
		c0.099,2.095-1.786,1.7-3.005,1.853c-3.426,0.431-6.874,0.669-10.304,1.086c-3.718,0.454-3.969,0.794-3.864,4.522
		c0.034,1.204,0.091,2.412,0.22,3.609c0.345,3.192,1.146,6.524-3.121,8.167c0.982,0.138,1.771,0.189,2.481-0.018
		c7.69-2.241,15.358-4.552,23.057-6.773c2.106-0.608,2.814-1.854,2.438-3.945c-0.641-3.551-1.292-7.103-1.78-10.675
		c-0.229-1.661-1.145-2.335-2.578-2.18C325.238,63.75,322.517,64.256,319.783,64.675z M108.585,103.897
		c-8.562,4.57-17.449,9.317-26.503,14.152c1.022,3.348,1.964,6.475,2.937,9.59c0.412,1.316,1.079,1.764,2.498,0.993
		c7.045-3.833,14.141-7.571,21.208-11.36c0.705-0.379,1.368-0.845,2.02-1.313c1.544-1.113,1.895-2.54,0.917-4.187
		c-0.819-1.381-1.889-2.635-2.532-4.084C108.687,106.696,108.784,105.464,108.585,103.897z M27.32,94.899
		c18.856-5.21,37.897-10.472,56.966-15.741c-1.506-4.578-1.85-4.795-5.827-4.139c-0.474,0.079-0.944,0.182-1.406,0.308
		c-15.931,4.338-31.863,8.665-47.786,13.029c-4.867,1.333-4.99,1.733-2.389,6.195C26.917,94.615,27.002,94.652,27.32,94.899z
		 M49.447,182.354c0.638-0.121,1.033-0.164,1.412-0.271c13.812-3.892,27.621-7.786,41.432-11.677
		c4.398-1.241,8.817-2.413,13.182-3.762c0.741-0.231,1.252-1.205,1.869-1.832c-0.697-0.58-1.326-1.303-2.119-1.682
		c-0.491-0.234-1.251-0.023-1.858,0.121c-8.261,1.984-16.541,3.902-24.768,6.021c-9.843,2.537-19.639,5.254-29.585,7.931
		C49.157,178.934,49.291,180.514,49.447,182.354z M85.866,85.493c-0.545,0.087-1.1,0.129-1.629,0.267
		c-12.487,3.267-24.989,6.481-37.451,9.848c-5.877,1.588-11.7,3.395-17.479,5.312c-0.809,0.269-1.219,1.739-1.813,2.653
		c0.954,0.224,1.999,0.822,2.848,0.618c12.312-2.976,24.604-6.039,36.889-9.13c5.13-1.291,10.271-2.564,15.33-4.094
		C85.715,90.013,86.314,88.713,85.866,85.493z M130.166,174.911c0.071,0.333,0.145,0.663,0.217,0.996
		c2.525-0.538,5.039-1.134,7.578-1.595c1.394-0.25,3.481-0.922,4.13-0.279c2.305,2.305,4.646,1.215,6.897,0.59
		c13.208-3.664,26.373-7.495,39.583-11.157c2.576-0.713,3.917-1.924,3.256-4.983C171.186,163.635,150.449,168.425,130.166,174.911z
		 M395.995,32.89c0.209,0.316,0.417,0.633,0.625,0.949c3.115-1.758,6.171-3.639,9.36-5.25c6.511-3.29,13.093-6.496,20.339-7.841
		c6.31-1.17,12.675-2.018,19-3.103c9.405-1.614,18.819-3.185,28.178-5.034c3.514-0.694,7.276-0.988,10.681-3.617
		c-1.219,0-1.987-0.093-2.727,0.014c-13.015,1.89-26.001,4.01-39.047,5.657c-14.167,1.788-27.304,6.204-39.308,13.96
		C400.777,30.124,398.365,31.472,395.995,32.89z M213.927,84.092c1.461-0.248,2.426-0.34,3.357-0.58
		c9.159-2.364,18.33-4.688,27.46-7.168c2.926-0.796,5.793-1.888,8.563-3.125c0.787-0.352,1.137-1.687,1.688-2.571
		c-0.897-0.178-1.9-0.705-2.672-0.471c-3.062,0.925-6.035,2.142-9.076,3.148c-2.497,0.826-5.011,2.004-7.568,2.159
		c-7.627,0.461-14.796,2.691-21.935,5.089c-0.615,0.206-1.229,1.403-1.226,2.138C212.522,83.236,213.558,83.756,213.927,84.092z
		 M191.208,151.645c-0.06-0.272-0.117-0.543-0.176-0.813c-0.389,0.03-0.784,0.022-1.162,0.096
		c-8.101,1.597-16.198,3.189-24.294,4.81c-9.743,1.953-19.479,3.963-28.726,7.746c-2.32,0.947-4.521,2.186-6.778,3.293
		c0.118,0.324,0.236,0.646,0.354,0.971C150.688,162.378,170.947,157.011,191.208,151.645z M252.383,66.114
		c-1.639-0.875-2.809-1.931-4.088-2.088c-2.445-0.301-4.997-0.394-7.425-0.029c-5.698,0.855-11.354,2.006-17.013,3.118
		c-0.591,0.116-1.586,0.922-1.518,1.139c0.232,0.761,0.715,1.602,1.359,2.033c0.598,0.402,1.556,0.531,2.297,0.411
		c2.282-0.37,4.539-0.91,6.802-1.396c1.949-0.419,3.868-1.828,5.874-0.01c0.275,0.25,1.086-0.01,1.62-0.141
		C244.011,68.234,247.718,67.29,252.383,66.114z M49.607,173.684c0.054,0.264,0.105,0.526,0.157,0.791
		c6.302,0.088,53.61-13.094,56.34-16.135C87.271,163.455,68.439,168.57,49.607,173.684z M48.333,168.848
		c7.571-0.35,53.431-12.812,56.155-15.193C85.517,157.77,66.77,162.719,48.333,168.848z M28.331,98.227
		c18.706-3.836,37.112-8.837,55.296-14.679C78.49,83.422,32.543,95.556,28.331,98.227z M338.255,50.805
		c0.087,0.206,0.175,0.413,0.262,0.619c1.298-0.543,2.619-1.034,3.887-1.637c8.976-4.271,17.881-8.693,26.928-12.799
		c5.548-2.517,11.321-4.525,16.962-6.843c0.867-0.357,1.561-1.147,2.335-1.736c-0.161-0.204-0.321-0.407-0.484-0.61
		C370.974,34.311,354.36,42.015,338.255,50.805z M201.947,73.48c0.02,0.329,0.042,0.66,0.062,0.989
		c0.771,0.358,1.516,0.812,2.322,1.054c2.065,0.623,4.195,1.048,6.233,1.745c2.771,0.945,5.433,0.068,7.078-2.594
		c-0.763,0.12-1.479,0.361-2.176,0.312c-0.961-0.068-1.908-0.355-2.862-0.547c0.496-0.94,0.799-2.076,1.525-2.777
		c1.333-1.289,2.911-2.322,4.958-3.902C212.916,69.819,207.432,71.65,201.947,73.48z M306.148,47.393
		c1.777,0.884,2.973,1.79,4.298,2.055c1.438,0.287,3.011,0.103,4.493-0.105c1.741-0.244,3.431-0.92,5.17-1.064
		c1.416-0.116,2.873,0.283,4.313,0.444c0.373,0.042,1.043,0.148,1.075,0.053c0.167-0.486,0.335-1.074,0.203-1.544
		c-0.551-2.001-3.091-3.794-5.279-3.333C315.744,44.883,311.13,46.154,306.148,47.393z M244.483,79.662
		c-10.063,1.942-19.98,4.441-29.526,8.249C225.257,86.815,235.017,83.787,244.483,79.662z M312.051,56.067
		c2.934-0.887,5.496-1.535,7.938-2.488c0.589-0.23,1.215-1.596,1.035-2.21c-0.182-0.63-1.419-1.481-2.036-1.369
		c-2.576,0.471-5.125,1.172-7.601,2.026c-0.528,0.183-1.086,1.441-0.958,2.065C310.581,54.822,311.468,55.402,312.051,56.067z
		 M297.906,57.654c-0.029,0.208-0.061,0.417-0.089,0.626c1.604,0.254,2.725,2.46,4.798,1.006c0.117-0.083,0.678,0.543,1.074,0.764
		c0.649,0.366,1.39,1.025,1.995,0.933c1.844-0.276,3.638-0.854,5.45-1.313c-0.026-0.184-0.056-0.367-0.083-0.551
		C306.669,58.631,302.286,58.142,297.906,57.654z M299.396,72.378c-1.493-3.319-2.983-6.639-4.476-9.959
		C294.424,66.888,296.127,70.672,299.396,72.378z M255.324,78.08c-4.707-0.598-6.066,3.801-9.361,4.539
		C249.117,81.597,252.915,81.883,255.324,78.08z M300.185,85.806c0.218-0.102,0.436-0.206,0.651-0.309
		c-0.916-3.729-1.557-7.561-3.599-10.87c-0.347,0.127-0.694,0.255-1.043,0.382C297.526,78.61,298.856,82.208,300.185,85.806z
		 M300.087,53.351c3.068,0.753,4.075-0.139,3.966-3.033C302.621,51.412,301.354,52.381,300.087,53.351z M325.14,57.285
		c-0.132-0.291-0.265-0.581-0.397-0.872c-1.955,0.911-3.91,1.821-5.865,2.732c0.123,0.27,0.245,0.539,0.366,0.809
		C321.206,59.063,323.176,58.174,325.14,57.285z M182.272,170.3c0.413,0.149,0.825,0.3,1.238,0.449
		c0.413-1.075,0.848-2.146,1.185-3.242c0.021-0.071-0.713-0.375-1.096-0.571C183.158,168.057,182.715,169.18,182.272,170.3z"/>
	<path fill="#FFFFFF" d="M191.364,141.689c-1.698,0.812-3.356,1.726-5.104,2.418c-15.083,5.996-30.597,10.572-46.492,13.83
		c-2.341,0.479-4.782,0.549-7.181,0.613c-0.747,0.021-1.511-0.602-2.27-0.931c0.588-0.655,1.058-1.66,1.782-1.904
		c4.327-1.448,8.674-2.868,13.087-4.022c13.878-3.633,27.781-7.168,41.699-10.647c1.355-0.34,2.873-0.045,4.315-0.045
		C191.254,141.23,191.311,141.46,191.364,141.689z"/>
</g>
</svg>
